<?xml version="1.0" encoding="UTF-8" standalone="no"?>
<!DOCTYPE svg PUBLIC "-//W3C//DTD SVG 1.1//EN"
 "http://www.w3.org/Graphics/SVG/1.1/DTD/svg11.dtd">
<!-- Generated by graphviz version 2.40.1 (20161225.0304)
 -->
<!-- Title: LightningNetwork Pages: 1 -->
<svg width="1373pt" height="476pt"
 viewBox="0.00 0.00 1373.19 476.00" xmlns="http://www.w3.org/2000/svg" xmlns:xlink="http://www.w3.org/1999/xlink">
<g id="graph0" class="graph" transform="scale(1 1) rotate(0) translate(4 472)">
<title>LightningNetwork</title>
<polygon fill="#ffffff" stroke="transparent" points="-4,4 -4,-472 1369.1852,-472 1369.1852,4 -4,4"/>
<!-- 022d5a83c2 -->
<g id="node1" class="node">
<title>022d5a83c2</title>
<ellipse fill="none" stroke="#000000" cx="93.3508" cy="-450" rx="53.1625" ry="18"/>
<text text-anchor="middle" x="93.3508" y="-445.8" font-family="Times,serif" font-size="14.00" fill="#000000">022d5a83c2</text>
</g>
<!-- 02e6f75091 -->
<g id="node2" class="node">
<title>02e6f75091</title>
<ellipse fill="none" stroke="#000000" cx="52.3508" cy="-342" rx="52.202" ry="18"/>
<text text-anchor="middle" x="52.3508" y="-337.8" font-family="Times,serif" font-size="14.00" fill="#000000">02e6f75091</text>
</g>
<!-- 022d5a83c2&#45;&#45;02e6f75091 -->
<g id="edge1" class="edge">
<title>022d5a83c2&#45;&#45;02e6f75091</title>
<path fill="none" stroke="#000000" stroke-width="2.9961" d="M68.4299,-434.0156C61.9838,-428.5206 55.8734,-421.7657 52.3576,-414 44.6244,-396.919 45.9512,-375.1356 48.3758,-360.0246"/>
<text text-anchor="middle" x="88.3474" y="-391.8" font-family="Times,serif" font-size="14.00" fill="#000000">cid:1313689</text>
</g>
<!-- 02b4f0aa3f -->
<g id="node3" class="node">
<title>02b4f0aa3f</title>
<ellipse fill="none" stroke="#000000" cx="245.3508" cy="-450" rx="50.2551" ry="18"/>
<text text-anchor="middle" x="245.3508" y="-445.8" font-family="Times,serif" font-size="14.00" fill="#000000">02b4f0aa3f</text>
</g>
<!-- 0384c8dc17 -->
<g id="node4" class="node">
<title>0384c8dc17</title>
<ellipse fill="none" stroke="#000000" cx="184.3508" cy="-342" rx="53.1625" ry="18"/>
<text text-anchor="middle" x="184.3508" y="-337.8" font-family="Times,serif" font-size="14.00" fill="#000000">0384c8dc17</text>
</g>
<!-- 02b4f0aa3f&#45;&#45;0384c8dc17 -->
<g id="edge2" class="edge">
<title>02b4f0aa3f&#45;&#45;0384c8dc17</title>
<path fill="none" stroke="#000000" stroke-width="2.9961" d="M202.8881,-440.2624C178.2282,-433.6526 150.624,-424.2705 143.3576,-414 134.1166,-400.9385 136.7593,-392.5761 143.3576,-378 146.8731,-370.2341 152.9833,-363.4792 159.4294,-357.9842"/>
<text text-anchor="middle" x="179.3474" y="-391.8" font-family="Times,serif" font-size="14.00" fill="#000000">cid:1314852</text>
</g>
<!-- 03b4bd3f7b -->
<g id="node5" class="node">
<title>03b4bd3f7b</title>
<ellipse fill="none" stroke="#000000" cx="693.3508" cy="-234" rx="52.6952" ry="18"/>
<text text-anchor="middle" x="693.3508" y="-229.8" font-family="Times,serif" font-size="14.00" fill="#000000">03b4bd3f7b</text>
</g>
<!-- 03ee7f315e -->
<g id="node6" class="node">
<title>03ee7f315e</title>
<ellipse fill="none" stroke="#000000" cx="352.3508" cy="-72" rx="51.2156" ry="18"/>
<text text-anchor="middle" x="352.3508" y="-67.8" font-family="Times,serif" font-size="14.00" fill="#000000">03ee7f315e</text>
</g>
<!-- 03b4bd3f7b&#45;&#45;03ee7f315e -->
<g id="edge3" class="edge">
<title>03b4bd3f7b&#45;&#45;03ee7f315e</title>
<path fill="none" stroke="#000000" stroke-width="2.9961" d="M653.5707,-222.1031C644.6775,-219.7829 635.2444,-217.5826 626.3508,-216 604.3846,-212.091 441.4104,-214.4684 426.3576,-198 415.5629,-186.1901 420.4479,-176.8686 426.3576,-162 430.4212,-151.7761 439.2872,-154.2239 443.3508,-144 449.2605,-129.1314 452.346,-121.232 443.3508,-108 433.3215,-93.2467 416.2105,-84.5395 399.5144,-79.4007"/>
<text text-anchor="middle" x="462.3474" y="-175.8" font-family="Times,serif" font-size="14.00" fill="#000000">cid:1315069</text>
</g>
<!-- 02b8f4c6e7 -->
<g id="node7" class="node">
<title>02b8f4c6e7</title>
<ellipse fill="none" stroke="#000000" cx="274.3508" cy="-396" rx="51.7088" ry="18"/>
<text text-anchor="middle" x="274.3508" y="-391.8" font-family="Times,serif" font-size="14.00" fill="#000000">02b8f4c6e7</text>
</g>
<!-- 02b8f4c6e7&#45;&#45;03ee7f315e -->
<g id="edge4" class="edge">
<title>02b8f4c6e7&#45;&#45;03ee7f315e</title>
<path fill="none" stroke="#000000" stroke-width="3" d="M278.9913,-377.7011C280.4112,-372.0324 281.9637,-365.7624 283.3508,-360 294.8815,-312.0991 298.4801,-300.2703 308.3508,-252 316.4901,-212.1965 314.7418,-201.4745 324.3508,-162 330.5045,-136.7199 339.8154,-108.1243 345.9878,-90.0836"/>
<text text-anchor="middle" x="350.3474" y="-229.8" font-family="Times,serif" font-size="14.00" fill="#000000">cid:1315452</text>
</g>
<!-- 02b8f4c6e7&#45;&#45;03ee7f315e -->
<g id="edge5" class="edge">
<title>02b8f4c6e7&#45;&#45;03ee7f315e</title>
<path fill="none" stroke="#000000" stroke-width="2.9694" d="M294.6294,-379.0104C322.2797,-354.3702 370.523,-305.7469 389.3508,-252 409.4965,-194.491 378.9847,-122.5982 362.1917,-89.7976"/>
<text text-anchor="middle" x="431.3474" y="-229.8" font-family="Times,serif" font-size="14.00" fill="#000000">cid:1315454</text>
</g>
<!-- 0321f0221d -->
<g id="node8" class="node">
<title>0321f0221d</title>
<ellipse fill="none" stroke="#000000" cx="817.3508" cy="-234" rx="52.6952" ry="18"/>
<text text-anchor="middle" x="817.3508" y="-229.8" font-family="Times,serif" font-size="14.00" fill="#000000">0321f0221d</text>
</g>
<!-- 02b8f4c6e7&#45;&#45;0321f0221d -->
<g id="edge14" class="edge">
<title>02b8f4c6e7&#45;&#45;0321f0221d</title>
<path fill="none" stroke="#000000" stroke-width="3" d="M310.8072,-383.0797C317.2565,-381.1403 323.9546,-379.3435 330.3508,-378 368.3936,-370.0091 478.316,-388.867 504.3508,-360 515.0666,-348.1185 513.4643,-337.1508 504.3508,-324 491.3731,-305.2732 469.3284,-324.7268 456.3508,-306 447.2373,-292.8492 445.3823,-281.6487 456.3508,-270 479.1669,-245.769 722.5558,-257.6748 755.3508,-252 763.0817,-250.6622 771.2204,-248.7103 778.9659,-246.58"/>
<text text-anchor="middle" x="547.3474" y="-337.8" font-family="Times,serif" font-size="14.00" fill="#000000">cid:1315552</text>
</g>
<!-- 03992d8efa -->
<g id="node22" class="node">
<title>03992d8efa</title>
<ellipse fill="none" stroke="#000000" cx="386.3508" cy="-18" rx="51.7088" ry="18"/>
<text text-anchor="middle" x="386.3508" y="-13.8" font-family="Times,serif" font-size="14.00" fill="#000000">03992d8efa</text>
</g>
<!-- 02b8f4c6e7&#45;&#45;03992d8efa -->
<g id="edge27" class="edge">
<title>02b8f4c6e7&#45;&#45;03992d8efa</title>
<path fill="none" stroke="#000000" stroke-width="2.3741" d="M267.7821,-378.1366C258.2737,-351.231 241.1293,-298.5005 234.8703,-252 232.7359,-236.143 232.1558,-231.7681 234.8703,-216 247.8316,-140.7096 239.0029,-108.6868 292.3508,-54 305.2858,-40.7403 323.6251,-32.2892 340.6755,-26.9379"/>
<text text-anchor="middle" x="270.091" y="-229.8" font-family="Times,serif" font-size="14.00" fill="#000000">cid:1321811</text>
</g>
<!-- 0321f0221d&#45;&#45;03ee7f315e -->
<g id="edge6" class="edge">
<title>0321f0221d&#45;&#45;03ee7f315e</title>
<path fill="none" stroke="#000000" stroke-width="1.8329" d="M778.9482,-221.5199C771.2042,-219.3814 763.0706,-217.4008 755.3508,-216 703.8186,-206.6492 565.5567,-224.4583 520.3576,-198 520.1955,-197.9051 460.5,-108.114 460.3508,-108 442.2876,-94.2042 418.659,-85.5383 398.1101,-80.1775"/>
<text text-anchor="middle" x="556.3474" y="-175.8" font-family="Times,serif" font-size="14.00" fill="#000000">cid:1315455</text>
</g>
<!-- 03b4d2e024 -->
<g id="node18" class="node">
<title>03b4d2e024</title>
<ellipse fill="none" stroke="#000000" cx="523.3508" cy="-72" rx="53.6557" ry="18"/>
<text text-anchor="middle" x="523.3508" y="-67.8" font-family="Times,serif" font-size="14.00" fill="#000000">03b4d2e024</text>
</g>
<!-- 0321f0221d&#45;&#45;03b4d2e024 -->
<g id="edge23" class="edge">
<title>0321f0221d&#45;&#45;03b4d2e024</title>
<path fill="none" stroke="#000000" stroke-width="3" d="M778.5493,-221.7691C770.9109,-219.6359 762.9185,-217.5937 755.3508,-216 696.1219,-203.527 672.7757,-228.2651 620.3576,-198 619.6254,-197.5773 563.1508,-123.9429 536.7185,-89.4501"/>
<text text-anchor="middle" x="656.3474" y="-175.8" font-family="Times,serif" font-size="14.00" fill="#000000">cid:1319794</text>
</g>
<!-- 032929df3c -->
<g id="node21" class="node">
<title>032929df3c</title>
<ellipse fill="none" stroke="#000000" cx="776.3508" cy="-126" rx="52.202" ry="18"/>
<text text-anchor="middle" x="776.3508" y="-121.8" font-family="Times,serif" font-size="14.00" fill="#000000">032929df3c</text>
</g>
<!-- 0321f0221d&#45;&#45;032929df3c -->
<g id="edge19" class="edge">
<title>0321f0221d&#45;&#45;032929df3c</title>
<path fill="none" stroke="#000000" stroke-width="2.9961" d="M810.3335,-216.0709C808.0903,-210.3063 805.6063,-203.8885 803.3576,-198 796.3563,-179.6662 788.4907,-158.6473 783.0619,-144.0721"/>
<text text-anchor="middle" x="838.3474" y="-175.8" font-family="Times,serif" font-size="14.00" fill="#000000">cid:1319691</text>
</g>
<!-- 0286ee70a6 -->
<g id="node9" class="node">
<title>0286ee70a6</title>
<ellipse fill="none" stroke="#000000" cx="811.3508" cy="-450" rx="52.6693" ry="18"/>
<text text-anchor="middle" x="811.3508" y="-445.8" font-family="Times,serif" font-size="14.00" fill="#000000">0286ee70a6</text>
</g>
<!-- 03cde254c5 -->
<g id="node10" class="node">
<title>03cde254c5</title>
<ellipse fill="none" stroke="#000000" cx="1312.3508" cy="-342" rx="52.6693" ry="18"/>
<text text-anchor="middle" x="1312.3508" y="-337.8" font-family="Times,serif" font-size="14.00" fill="#000000">03cde254c5</text>
</g>
<!-- 0286ee70a6&#45;&#45;03cde254c5 -->
<g id="edge7" class="edge">
<title>0286ee70a6&#45;&#45;03cde254c5</title>
<path fill="none" stroke="#000000" stroke-width="1.0378" d="M857.7921,-441.2868C937.4165,-426.1432 1104.9834,-393.3799 1245.3508,-360 1253.7875,-357.9937 1262.7783,-355.6921 1271.3443,-353.4201"/>
<text text-anchor="middle" x="1197.3474" y="-391.8" font-family="Times,serif" font-size="14.00" fill="#000000">cid:1315473</text>
</g>
<!-- 02a86d2a8b -->
<g id="node11" class="node">
<title>02a86d2a8b</title>
<ellipse fill="none" stroke="#000000" cx="385.3508" cy="-396" rx="53.1625" ry="18"/>
<text text-anchor="middle" x="385.3508" y="-391.8" font-family="Times,serif" font-size="14.00" fill="#000000">02a86d2a8b</text>
</g>
<!-- 02a86d2a8b&#45;&#45;03b4bd3f7b -->
<g id="edge8" class="edge">
<title>02a86d2a8b&#45;&#45;03b4bd3f7b</title>
<path fill="none" stroke="#000000" stroke-width="2.9961" d="M422.4386,-382.9299C429.0052,-381.0071 435.8288,-379.2547 442.3508,-378 468.8284,-372.9061 666.0057,-379.7603 684.3508,-360 695.2368,-348.2742 695.2102,-335.7505 684.3508,-324 649.8558,-286.6743 490.8458,-343.3257 456.3508,-306 445.4914,-294.2495 445.6493,-281.8944 456.3508,-270 481.7595,-241.7589 589.0029,-258.9496 626.3508,-252 635.1132,-250.3695 644.4082,-248.1776 653.1957,-245.8851"/>
<text text-anchor="middle" x="728.3474" y="-337.8" font-family="Times,serif" font-size="14.00" fill="#000000">cid:1315476</text>
</g>
<!-- 02a86d2a8b&#45;&#45;03ee7f315e -->
<g id="edge9" class="edge">
<title>02a86d2a8b&#45;&#45;03ee7f315e</title>
<path fill="none" stroke="#000000" stroke-width="3" d="M422.8028,-383.1134C429.2681,-381.1944 435.9636,-379.3956 442.3508,-378 473.8565,-371.1161 565.0083,-384.1764 586.3508,-360 596.9396,-348.0051 596.9292,-336.004 586.3508,-324 544.2908,-276.2719 486.4108,-353.7281 444.3508,-306 433.7723,-293.996 434.426,-282.5499 444.3508,-270 465.8826,-242.7728 498.8189,-279.2272 520.3508,-252 530.2755,-239.4501 530.6547,-228.2405 520.3508,-216 490.1414,-180.1129 450.8019,-229.8373 416.3508,-198 386.0299,-169.9796 414.938,-143.1921 393.3508,-108 388.794,-100.5715 382.2173,-93.8328 375.6609,-88.2475"/>
<text text-anchor="middle" x="563.3474" y="-229.8" font-family="Times,serif" font-size="14.00" fill="#000000">cid:1315483</text>
</g>
<!-- 02414c852e -->
<g id="node12" class="node">
<title>02414c852e</title>
<ellipse fill="none" stroke="#000000" cx="634.3508" cy="-450" rx="53.1625" ry="18"/>
<text text-anchor="middle" x="634.3508" y="-445.8" font-family="Times,serif" font-size="14.00" fill="#000000">02414c852e</text>
</g>
<!-- 030d0de878 -->
<g id="node13" class="node">
<title>030d0de878</title>
<ellipse fill="none" stroke="#000000" cx="867.3508" cy="-342" rx="53.6557" ry="18"/>
<text text-anchor="middle" x="867.3508" y="-337.8" font-family="Times,serif" font-size="14.00" fill="#000000">030d0de878</text>
</g>
<!-- 02414c852e&#45;&#45;030d0de878 -->
<g id="edge10" class="edge">
<title>02414c852e&#45;&#45;030d0de878</title>
<path fill="none" stroke="#000000" stroke-width="2.9961" d="M633.5602,-431.7261C633.9173,-415.1505 637.3129,-391.3301 652.3576,-378 676.4939,-356.6144 764.6614,-365.9738 796.3508,-360 805.8479,-358.2097 815.9637,-355.8959 825.4938,-353.5273"/>
<text text-anchor="middle" x="688.3474" y="-391.8" font-family="Times,serif" font-size="14.00" fill="#000000">cid:1315490</text>
</g>
<!-- 0380aa549d -->
<g id="node14" class="node">
<title>0380aa549d</title>
<ellipse fill="none" stroke="#000000" cx="935.3508" cy="-180" rx="53.1625" ry="18"/>
<text text-anchor="middle" x="935.3508" y="-175.8" font-family="Times,serif" font-size="14.00" fill="#000000">0380aa549d</text>
</g>
<!-- 02414c852e&#45;&#45;0380aa549d -->
<g id="edge11" class="edge">
<title>02414c852e&#45;&#45;0380aa549d</title>
<path fill="none" stroke="#000000" stroke-width="2.9961" d="M673.6275,-437.6117C689.4469,-431.7037 707.439,-423.7699 722.3508,-414 741.5423,-401.426 738.5756,-387.7371 759.3508,-378 793.9491,-361.7841 904.7856,-388.3975 930.3508,-360 988.0093,-295.9536 864.1135,-315.8773 856.3508,-306 801.273,-235.9189 932.3214,-255.7972 935.3508,-252 947.3558,-236.952 944.9173,-213.9534 941.0683,-198.0154"/>
<text text-anchor="middle" x="980.3474" y="-337.8" font-family="Times,serif" font-size="14.00" fill="#000000">cid:1315490</text>
</g>
<!-- 030d0de878&#45;&#45;0321f0221d -->
<g id="edge12" class="edge">
<title>030d0de878&#45;&#45;0321f0221d</title>
<path fill="none" stroke="#000000" stroke-width="2.9694" d="M826.329,-330.1667C816.5772,-327.7535 806.1558,-325.4975 796.3508,-324 760.2706,-318.4895 493.4489,-332.506 468.3576,-306 457.3583,-294.3804 457.4037,-281.6624 468.3576,-270 490.2317,-246.711 723.8747,-257.4872 755.3508,-252 763.08,-250.6526 771.218,-248.6962 778.9632,-246.5646"/>
<text text-anchor="middle" x="504.3474" y="-283.8" font-family="Times,serif" font-size="14.00" fill="#000000">cid:1315539</text>
</g>
<!-- 030d0de878&#45;&#45;0380aa549d -->
<g id="edge17" class="edge">
<title>030d0de878&#45;&#45;0380aa549d</title>
<path fill="none" stroke="#000000" stroke-width="1.1816" d="M825.453,-330.6808C815.925,-328.3014 805.8204,-325.9306 796.3508,-324 770.7918,-318.7891 697.3293,-325.8085 680.3576,-306 669.9474,-293.8498 669.4903,-281.7431 680.3576,-270 715.4787,-232.0484 871.8046,-284.0909 912.3508,-252 928.5053,-239.2143 933.4959,-215.0308 934.9399,-198.2386"/>
<text text-anchor="middle" x="716.3474" y="-283.8" font-family="Times,serif" font-size="14.00" fill="#000000">cid:1315609</text>
</g>
<!-- 02f88685f0 -->
<g id="node15" class="node">
<title>02f88685f0</title>
<ellipse fill="none" stroke="#000000" cx="380.3508" cy="-450" rx="51.2415" ry="18"/>
<text text-anchor="middle" x="380.3508" y="-445.8" font-family="Times,serif" font-size="14.00" fill="#000000">02f88685f0</text>
</g>
<!-- 02f88685f0&#45;&#45;030d0de878 -->
<g id="edge13" class="edge">
<title>02f88685f0&#45;&#45;030d0de878</title>
<path fill="none" stroke="#000000" stroke-width="3" d="M411.2457,-435.5658C421.3409,-429.8375 432.0736,-422.5565 440.3508,-414 453.0778,-400.8436 444.8346,-387.7006 460.3576,-378 492.0622,-358.1874 759.3896,-365.6204 796.3508,-360 806.1568,-358.5089 816.5785,-356.2554 826.3304,-353.8425"/>
<text text-anchor="middle" x="496.3474" y="-391.8" font-family="Times,serif" font-size="14.00" fill="#000000">cid:1315539</text>
</g>
<!-- 02aff94ad3 -->
<g id="node16" class="node">
<title>02aff94ad3</title>
<ellipse fill="none" stroke="#000000" cx="508.3508" cy="-450" rx="50.4449" ry="18"/>
<text text-anchor="middle" x="508.3508" y="-445.8" font-family="Times,serif" font-size="14.00" fill="#000000">02aff94ad3</text>
</g>
<!-- 02aff94ad3&#45;&#45;030d0de878 -->
<g id="edge15" class="edge">
<title>02aff94ad3&#45;&#45;030d0de878</title>
<path fill="none" stroke="#000000" stroke-width="2.6664" d="M520.5695,-432.1647C534.6304,-411.8975 556.536,-381.1955 562.3576,-378 608.0752,-352.9053 744.886,-368.4391 796.3508,-360 806.1388,-358.395 816.5535,-356.097 826.3043,-353.6773"/>
<text text-anchor="middle" x="598.3474" y="-391.8" font-family="Times,serif" font-size="14.00" fill="#000000">cid:1315572</text>
</g>
<!-- 0365ad5a34 -->
<g id="node17" class="node">
<title>0365ad5a34</title>
<ellipse fill="none" stroke="#000000" cx="600.3508" cy="-288" rx="53.1625" ry="18"/>
<text text-anchor="middle" x="600.3508" y="-283.8" font-family="Times,serif" font-size="14.00" fill="#000000">0365ad5a34</text>
</g>
<!-- 0365ad5a34&#45;&#45;03b4d2e024 -->
<g id="edge16" class="edge">
<title>0365ad5a34&#45;&#45;03b4d2e024</title>
<path fill="none" stroke="#000000" stroke-width="0" d="M640.9649,-276.183C650.2298,-273.8294 660.0781,-271.595 669.3508,-270 764.3256,-253.6633 943.6697,-287.7648 879.3508,-216 854.882,-188.6986 746.8685,-216.739 715.3576,-198 698.6133,-188.0424 704.8809,-174.9769 690.3508,-162 650.9243,-126.7883 595.2922,-100.3524 559.2722,-85.529"/>
<text text-anchor="middle" x="751.3474" y="-175.8" font-family="Times,serif" font-size="14.00" fill="#000000">cid:1315578</text>
</g>
<!-- 023dbcfb93 -->
<g id="node19" class="node">
<title>023dbcfb93</title>
<ellipse fill="none" stroke="#000000" cx="820.3508" cy="-396" rx="52.202" ry="18"/>
<text text-anchor="middle" x="820.3508" y="-391.8" font-family="Times,serif" font-size="14.00" fill="#000000">023dbcfb93</text>
</g>
<!-- 032f2c7d57 -->
<g id="node20" class="node">
<title>032f2c7d57</title>
<ellipse fill="none" stroke="#000000" cx="1268.3508" cy="-180" rx="52.202" ry="18"/>
<text text-anchor="middle" x="1268.3508" y="-175.8" font-family="Times,serif" font-size="14.00" fill="#000000">032f2c7d57</text>
</g>
<!-- 023dbcfb93&#45;&#45;032f2c7d57 -->
<g id="edge18" class="edge">
<title>023dbcfb93&#45;&#45;032f2c7d57</title>
<path fill="none" stroke="#000000" stroke-width="2.6664" d="M870.5989,-390.7415C905.3489,-387.1197 952.6537,-382.2187 994.3508,-378 1034.7861,-373.909 1139.9555,-378.0869 1176.3508,-360 1234.9321,-330.8876 1252.4832,-312.9069 1276.3508,-252 1283.188,-234.5522 1279.3562,-213.024 1274.9586,-198.0758"/>
<text text-anchor="middle" x="1303.3474" y="-283.8" font-family="Times,serif" font-size="14.00" fill="#000000">cid:1319691</text>
</g>
<!-- 023dbcfb93&#45;&#45;032929df3c -->
<g id="edge22" class="edge">
<title>023dbcfb93&#45;&#45;032929df3c</title>
<path fill="none" stroke="#000000" stroke-width="2.9961" d="M870.7373,-390.894C930.3678,-384.3339 1022.941,-372.3168 1033.3508,-360 1043.6788,-347.7799 1044.0334,-335.9114 1033.3508,-324 1008.7256,-296.5422 892.9828,-333.4578 868.3576,-306 857.675,-294.0886 857.9168,-282.1239 868.3576,-270 903.5478,-229.1372 951.3123,-291.1953 988.3508,-252 1015.8662,-222.8823 1019.2571,-192.5582 993.3508,-162 987.9256,-155.6006 887.6742,-141.0206 825.3544,-132.5084"/>
<text text-anchor="middle" x="903.3474" y="-283.8" font-family="Times,serif" font-size="14.00" fill="#000000">cid:1319729</text>
</g>
<!-- 023dbcfb93&#45;&#45;03992d8efa -->
<g id="edge21" class="edge">
<title>023dbcfb93&#45;&#45;03992d8efa</title>
<path fill="none" stroke="#000000" stroke-width="3" d="M871.0973,-391.3019C935.7082,-384.9228 1043.5016,-372.8363 1081.3508,-360 1136.4305,-341.32 1196.6401,-324.5074 1176.3508,-270 1128.1048,-140.3866 1083.7429,-97.1672 952.3508,-54 904.2929,-38.2112 568.6699,-24.573 438.1263,-19.8068"/>
<text text-anchor="middle" x="1203.3474" y="-229.8" font-family="Times,serif" font-size="14.00" fill="#000000">cid:1319726</text>
</g>
<!-- 033933549b -->
<g id="node24" class="node">
<title>033933549b</title>
<ellipse fill="none" stroke="#000000" cx="973.3508" cy="-126" rx="54.1489" ry="18"/>
<text text-anchor="middle" x="973.3508" y="-121.8" font-family="Times,serif" font-size="14.00" fill="#000000">033933549b</text>
</g>
<!-- 023dbcfb93&#45;&#45;033933549b -->
<g id="edge25" class="edge">
<title>023dbcfb93&#45;&#45;033933549b</title>
<path fill="none" stroke="#000000" stroke-width="3" d="M870.5249,-390.5395C933.7427,-383.2935 1035.9248,-370.2252 1050.3508,-360 1094.8011,-328.4934 1095.0604,-304.8381 1108.3508,-252 1112.2537,-236.4833 1115.2556,-230.4334 1108.3508,-216 1091.8459,-181.4992 1073.2863,-183.0437 1041.3508,-162 1029.7506,-154.3561 1016.3529,-146.9815 1004.5326,-140.9189"/>
<text text-anchor="middle" x="1138.091" y="-283.8" font-family="Times,serif" font-size="14.00" fill="#000000">cid:1321811</text>
</g>
<!-- 032929df3c&#45;&#45;03992d8efa -->
<g id="edge20" class="edge">
<title>032929df3c&#45;&#45;03992d8efa</title>
<path fill="none" stroke="#000000" stroke-width="2.9961" d="M744.0107,-111.6447C706.6805,-95.5715 643.1235,-69.7221 586.3508,-54 535.6899,-39.9705 476.2494,-30.0768 435.4112,-24.2573"/>
<text text-anchor="middle" x="726.3474" y="-67.8" font-family="Times,serif" font-size="14.00" fill="#000000">cid:1319725</text>
</g>
<!-- 024df46b51 -->
<g id="node23" class="node">
<title>024df46b51</title>
<ellipse fill="none" stroke="#000000" cx="1000.3508" cy="-288" rx="52.6952" ry="18"/>
<text text-anchor="middle" x="1000.3508" y="-283.8" font-family="Times,serif" font-size="14.00" fill="#000000">024df46b51</text>
</g>
<!-- 024df46b51&#45;&#45;033933549b -->
<g id="edge24" class="edge">
<title>024df46b51&#45;&#45;033933549b</title>
<path fill="none" stroke="#000000" stroke-width="2.9694" d="M1016.2769,-270.5478C1020.3687,-265.0115 1024.216,-258.6021 1026.3508,-252 1038.6765,-213.8816 1040.9014,-196.9673 1021.3508,-162 1016.7757,-153.8172 1009.4848,-146.9384 1001.9532,-141.4582"/>
<text text-anchor="middle" x="1069.3474" y="-229.8" font-family="Times,serif" font-size="14.00" fill="#000000">cid:1321752</text>
</g>
<!-- 033933549b&#45;&#45;03992d8efa -->
<g id="edge26" class="edge">
<title>033933549b&#45;&#45;03992d8efa</title>
<path fill="none" stroke="#000000" stroke-width="3" d="M939.8357,-111.6052C899.3089,-94.8586 828.6453,-67.7539 765.3508,-54 650.2236,-28.9829 511.6738,-21.3506 438.135,-19.0222"/>
<text text-anchor="middle" x="914.091" y="-67.8" font-family="Times,serif" font-size="14.00" fill="#000000">cid:1321811</text>
</g>
</g>
</svg>
